<mxfile host="Electron" agent="Mozilla/5.0 (Macintosh; Intel Mac OS X 10_15_7) AppleWebKit/537.36 (KHTML, like Gecko) draw.io/24.7.8 Chrome/128.0.6613.36 Electron/32.0.1 Safari/537.36" version="24.7.8">
  <diagram name="PÃ¡gina-1" id="Wd3Yw5G85OHn2Ttq9tOE">
    <mxGraphModel dx="626" dy="402" grid="0" gridSize="10" guides="1" tooltips="1" connect="1" arrows="1" fold="1" page="1" pageScale="1" pageWidth="827" pageHeight="1169" background="#ffffff" math="0" shadow="0">
      <root>
        <mxCell id="0" />
        <mxCell id="1" parent="0" />
        <mxCell id="iy80IEU9ZQIbK0lbwhQy-2" value="" style="shape=mxgraph.cisco.computers_and_peripherals.terminal;sketch=0;html=1;pointerEvents=1;dashed=0;fillColor=#036897;strokeColor=#ffffff;strokeWidth=2;verticalLabelPosition=bottom;verticalAlign=top;align=center;outlineConnect=0;" parent="1" vertex="1">
          <mxGeometry x="377" y="135" width="61" height="54" as="geometry" />
        </mxCell>
        <mxCell id="iy80IEU9ZQIbK0lbwhQy-7" value="" style="shape=mxgraph.cisco.computers_and_peripherals.terminal;sketch=0;html=1;pointerEvents=1;dashed=0;fillColor=#036897;strokeColor=#ffffff;strokeWidth=2;verticalLabelPosition=bottom;verticalAlign=top;align=center;outlineConnect=0;" parent="1" vertex="1">
          <mxGeometry x="221" y="227" width="61" height="54" as="geometry" />
        </mxCell>
        <mxCell id="iy80IEU9ZQIbK0lbwhQy-8" value="" style="shape=mxgraph.cisco.computers_and_peripherals.terminal;sketch=0;html=1;pointerEvents=1;dashed=0;fillColor=#036897;strokeColor=#ffffff;strokeWidth=2;verticalLabelPosition=bottom;verticalAlign=top;align=center;outlineConnect=0;" parent="1" vertex="1">
          <mxGeometry x="291" y="340" width="61" height="54" as="geometry" />
        </mxCell>
        <mxCell id="iy80IEU9ZQIbK0lbwhQy-9" value="" style="shape=mxgraph.cisco.computers_and_peripherals.terminal;sketch=0;html=1;pointerEvents=1;dashed=0;fillColor=#036897;strokeColor=#ffffff;strokeWidth=2;verticalLabelPosition=bottom;verticalAlign=top;align=center;outlineConnect=0;" parent="1" vertex="1">
          <mxGeometry x="461" y="340" width="61" height="54" as="geometry" />
        </mxCell>
        <mxCell id="iy80IEU9ZQIbK0lbwhQy-10" value="" style="shape=mxgraph.cisco.computers_and_peripherals.terminal;sketch=0;html=1;pointerEvents=1;dashed=0;fillColor=#036897;strokeColor=#ffffff;strokeWidth=2;verticalLabelPosition=bottom;verticalAlign=top;align=center;outlineConnect=0;" parent="1" vertex="1">
          <mxGeometry x="527" y="227" width="61" height="54" as="geometry" />
        </mxCell>
        <mxCell id="iy80IEU9ZQIbK0lbwhQy-16" value="" style="endArrow=none;html=1;rounded=0;strokeColor=#006EAF;fillColor=#1ba1e2;exitX=0;exitY=0.98;exitDx=0;exitDy=0;exitPerimeter=0;" parent="1" target="iy80IEU9ZQIbK0lbwhQy-7" edge="1">
          <mxGeometry width="50" height="50" relative="1" as="geometry">
            <mxPoint x="383" y="179.39999999999998" as="sourcePoint" />
            <mxPoint x="420" y="199" as="targetPoint" />
          </mxGeometry>
        </mxCell>
        <mxCell id="iy80IEU9ZQIbK0lbwhQy-19" value="" style="endArrow=none;html=1;rounded=0;strokeColor=#006EAF;fillColor=#1ba1e2;entryX=0.87;entryY=0.74;entryDx=0;entryDy=0;entryPerimeter=0;" parent="1" source="iy80IEU9ZQIbK0lbwhQy-10" edge="1">
          <mxGeometry width="50" height="50" relative="1" as="geometry">
            <mxPoint x="504" y="304" as="sourcePoint" />
            <mxPoint x="435.20000000000005" y="172.19999999999993" as="targetPoint" />
          </mxGeometry>
        </mxCell>
        <mxCell id="iy80IEU9ZQIbK0lbwhQy-21" value="" style="endArrow=none;html=1;rounded=0;strokeColor=#006EAF;fillColor=#1ba1e2;exitX=0.5;exitY=1;exitDx=0;exitDy=0;exitPerimeter=0;" parent="1" source="iy80IEU9ZQIbK0lbwhQy-7" target="iy80IEU9ZQIbK0lbwhQy-8" edge="1">
          <mxGeometry width="50" height="50" relative="1" as="geometry">
            <mxPoint x="270" y="309" as="sourcePoint" />
            <mxPoint x="169" y="366.6" as="targetPoint" />
          </mxGeometry>
        </mxCell>
        <mxCell id="iy80IEU9ZQIbK0lbwhQy-22" value="" style="endArrow=none;html=1;rounded=0;strokeColor=#006EAF;fillColor=#1ba1e2;" parent="1" source="iy80IEU9ZQIbK0lbwhQy-9" target="iy80IEU9ZQIbK0lbwhQy-8" edge="1">
          <mxGeometry width="50" height="50" relative="1" as="geometry">
            <mxPoint x="403" y="199.39999999999998" as="sourcePoint" />
            <mxPoint x="302" y="257" as="targetPoint" />
          </mxGeometry>
        </mxCell>
        <mxCell id="iy80IEU9ZQIbK0lbwhQy-23" value="" style="endArrow=none;html=1;rounded=0;strokeColor=#006EAF;fillColor=#1ba1e2;entryX=1;entryY=0.5;entryDx=0;entryDy=0;entryPerimeter=0;exitX=0.5;exitY=1;exitDx=0;exitDy=0;exitPerimeter=0;" parent="1" source="iy80IEU9ZQIbK0lbwhQy-10" target="iy80IEU9ZQIbK0lbwhQy-9" edge="1">
          <mxGeometry width="50" height="50" relative="1" as="geometry">
            <mxPoint x="650.8" y="363.8" as="sourcePoint" />
            <mxPoint x="544" y="309.99999999999994" as="targetPoint" />
          </mxGeometry>
        </mxCell>
      </root>
    </mxGraphModel>
  </diagram>
</mxfile>
